<svg xmlns="http://www.w3.org/2000/svg" xmlns:xlink="http://www.w3.org/1999/xlink" xmlns:lucid="lucid" width="1170" height="901"><g transform="translate(0 0)" lucid:page-tab-id="0_0"><path d="M320 96c0-3.3 2.7-6 6-6h268c3.3 0 6 2.7 6 6v28c0 3.3-2.7 6-6 6H326c-3.3 0-6-2.7-6-6z" stroke="#5e5e5e" stroke-width="3" fill="#fff"/><use xlink:href="#a" transform="matrix(1,0,0,1,325,94.9999999371795) translate(80.59259259259258 19.65277777777778)"/><path d="M20 26c0-3.3 2.7-6 6-6h228c3.3 0 6 2.7 6 6v48c0 3.3-2.7 6-6 6H26c-3.3 0-6-2.7-6-6z" stroke="#5e5e5e" stroke-width="3" fill="#fff"/><use xlink:href="#b" transform="matrix(1,0,0,1,25,25) translate(27.438271604938265 30.27777777777778)"/><use xlink:href="#c" transform="matrix(1,0,0,1,25,25) translate(119.9074074074074 30.27777777777778)"/><use xlink:href="#d" transform="matrix(1,0,0,1,25,25) translate(177.87037037037038 30.27777777777778)"/><path d="M20 84.33c0-3.3 2.7-6 6-6h228c3.3 0 6 2.7 6 6v51.34c0 3.3-2.7 6-6 6H26c-3.3 0-6-2.7-6-6z" stroke="#5e5e5e" stroke-width="3" fill="#fff"/><use xlink:href="#e" transform="matrix(1,0,0,1,25,83.33333333333334) translate(43.54938271604938 17.77777777777778)"/><use xlink:href="#f" transform="matrix(1,0,0,1,25,83.33333333333334) translate(91.57407407407408 17.77777777777778)"/><use xlink:href="#g" transform="matrix(1,0,0,1,25,83.33333333333334) translate(113.73456790123457 17.77777777777778)"/><use xlink:href="#h" transform="matrix(1,0,0,1,25,83.33333333333334) translate(150.7716049382716 17.77777777777778)"/><use xlink:href="#i" transform="matrix(1,0,0,1,25,83.33333333333334) translate(43.70370370370371 44.44444444444444)"/><use xlink:href="#j" transform="matrix(1,0,0,1,25,83.33333333333334) translate(133.7037037037037 44.44444444444444)"/><path d="M262.5 110H300" stroke="#5e5e5e" stroke-width="2" fill="none"/><path d="M262.53 111h-1.03v-2h1.03z" fill="#5e5e5e"/><path d="M315.26 110L301 114.64v-9.28z" stroke="#5e5e5e" stroke-width="2" fill="#5e5e5e"/><path d="M320 136c0-3.3 2.7-6 6-6h268c3.3 0 6 2.7 6 6v51.33c0 3.32-2.7 6-6 6H326c-3.3 0-6-2.68-6-6z" stroke="#5e5e5e" stroke-width="3" fill="#fff"/><use xlink:href="#k" transform="matrix(1,0,0,1,325,134.99999993717952) translate(14.388888888888886 31.27777777777778)"/><use xlink:href="#l" transform="matrix(1,0,0,1,325,134.99999993717952) translate(58.03086419753086 31.27777777777778)"/><use xlink:href="#m" transform="matrix(1,0,0,1,325,134.99999993717952) translate(115.99382716049382 31.27777777777778)"/><use xlink:href="#n" transform="matrix(1,0,0,1,325,134.99999993717952) translate(146.85802469135803 31.27777777777778)"/><use xlink:href="#o" transform="matrix(1,0,0,1,325,134.99999993717952) translate(170.2530864197531 31.27777777777778)"/><use xlink:href="#p" transform="matrix(1,0,0,1,325,134.99999993717952) translate(219.57407407407408 31.27777777777778)"/><path d="M280 226c0-3.3 2.7-6 6-6h88c3.3 0 6 2.7 6 6v28c0 3.3-2.7 6-6 6h-88c-3.3 0-6-2.7-6-6z" stroke="#5e5e5e" stroke-width="3" fill="#fff"/><use xlink:href="#q" transform="matrix(1,0,0,1,285,225.00000000000003) translate(11.666666666666664 19.65277777777778)"/><use xlink:href="#r" transform="matrix(1,0,0,1,285,225.00000000000003) translate(53.641975308641975 19.65277777777778)"/><path d="M400 226c0-3.3 2.7-6 6-6h88c3.3 0 6 2.7 6 6v51.33c0 3.32-2.7 6-6 6h-88c-3.3 0-6-2.68-6-6z" stroke="#5e5e5e" stroke-width="3" fill="#fff"/><use xlink:href="#s" transform="matrix(1,0,0,1,405,225.00000000000003) translate(3.6419753086419746 17.77777777777778)"/><use xlink:href="#t" transform="matrix(1,0,0,1,405,225.00000000000003) translate(39.44444444444444 17.77777777777778)"/><use xlink:href="#u" transform="matrix(1,0,0,1,405,225.00000000000003) translate(6.141975308641975 44.44444444444444)"/><use xlink:href="#v" transform="matrix(1,0,0,1,405,225.00000000000003) translate(30.833333333333332 44.44444444444444)"/><path d="M520 226c0-3.3 2.7-6 6-6h128c3.3 0 6 2.7 6 6v53c0 3.3-2.7 6-6 6H526c-3.3 0-6-2.7-6-6z" stroke="#5e5e5e" stroke-width="3" fill="#fff"/><use xlink:href="#w" transform="matrix(1,0,0,1,525,224.99999999999997) translate(3.8888888888888857 17.77777777777778)"/><use xlink:href="#x" transform="matrix(1,0,0,1,525,224.99999999999997) translate(58.20987654320988 17.77777777777778)"/><use xlink:href="#y" transform="matrix(1,0,0,1,525,224.99999999999997) translate(95.24691358024691 17.77777777777778)"/><use xlink:href="#z" transform="matrix(1,0,0,1,525,224.99999999999997) translate(28.055555555555557 44.44444444444444)"/><path d="M320 406c0-3.3 2.7-6 6-6h268c3.3 0 6 2.7 6 6v28c0 3.3-2.7 6-6 6H326c-3.3 0-6-2.7-6-6z" stroke="#5e5e5e" stroke-width="3" fill="#fff"/><use xlink:href="#A" transform="matrix(1,0,0,1,325,405) translate(89.23456790123456 19.65277777777778)"/><path d="M320 446c0-3.3 2.7-6 6-6h268c3.3 0 6 2.7 6 6v51.33c0 3.32-2.7 6-6 6H326c-3.3 0-6-2.68-6-6z" stroke="#5e5e5e" stroke-width="3" fill="#fff"/><use xlink:href="#k" transform="matrix(1,0,0,1,325,445) translate(32.84567901234567 31.27777777777778)"/><use xlink:href="#B" transform="matrix(1,0,0,1,325,445) translate(76.48765432098764 31.27777777777778)"/><use xlink:href="#C" transform="matrix(1,0,0,1,325,445) translate(107.35185185185185 31.27777777777778)"/><use xlink:href="#u" transform="matrix(1,0,0,1,325,445) translate(160.43827160493828 31.27777777777778)"/><use xlink:href="#v" transform="matrix(1,0,0,1,325,445) translate(185.12962962962965 31.27777777777778)"/><path d="M240 534.33c0-3.3 2.7-6 6-6h128c3.3 0 6 2.7 6 6v51.34c0 3.3-2.7 6-6 6H246c-3.3 0-6-2.7-6-6z" stroke="#5e5e5e" stroke-width="3" fill="#fff"/><use xlink:href="#D" transform="matrix(1,0,0,1,245,533.3333333961539) translate(9.444444444444443 17.77777777777778)"/><use xlink:href="#u" transform="matrix(1,0,0,1,245,533.3333333961539) translate(65 17.77777777777778)"/><use xlink:href="#y" transform="matrix(1,0,0,1,245,533.3333333961539) translate(89.69135802469137 17.77777777777778)"/><use xlink:href="#E" transform="matrix(1,0,0,1,245,533.3333333961539) translate(15.030864197530867 44.44444444444444)"/><use xlink:href="#F" transform="matrix(1,0,0,1,245,533.3333333961539) translate(55.70987654320988 44.44444444444444)"/><path d="M400 536c0-3.3 2.7-6 6-6h88c3.3 0 6 2.7 6 6v51.33c0 3.32-2.7 6-6 6h-88c-3.3 0-6-2.68-6-6z" stroke="#5e5e5e" stroke-width="3" fill="#fff"/><use xlink:href="#D" transform="matrix(1,0,0,1,405,535.0000000628205) translate(7.962962962962962 17.77777777777778)"/><use xlink:href="#G" transform="matrix(1,0,0,1,405,535.0000000628205) translate(63.518518518518526 17.77777777777778)"/><use xlink:href="#E" transform="matrix(1,0,0,1,405,535.0000000628205) translate(1.2037037037037095 44.44444444444444)"/><use xlink:href="#H" transform="matrix(1,0,0,1,405,535.0000000628205) translate(41.88271604938272 44.44444444444444)"/><path d="M520 536c0-3.3 2.7-6 6-6h128c3.3 0 6 2.7 6 6v53c0 3.3-2.7 6-6 6H526c-3.3 0-6-2.7-6-6z" stroke="#5e5e5e" stroke-width="3" fill="#fff"/><use xlink:href="#D" transform="matrix(1,0,0,1,525,535.0000000628205) translate(3.3024691358024683 31.52777777777778)"/><use xlink:href="#u" transform="matrix(1,0,0,1,525,535.0000000628205) translate(58.85802469135803 31.52777777777778)"/><use xlink:href="#I" transform="matrix(1,0,0,1,525,535.0000000628205) translate(83.5493827160494 31.52777777777778)"/><path d="M450 285.83V380" stroke="#5e5e5e" stroke-width="2" fill="none"/><path d="M451 285.86h-2v-1.03h2z" fill="#5e5e5e"/><path d="M450 395.26L445.36 381h9.28z" stroke="#5e5e5e" stroke-width="2" fill="#5e5e5e"/><path d="M237.5 560h-33c-3.3 0-6-2.7-6-6V187.33c0-3.3 2.7-6 6-6H300" stroke="#5e5e5e" stroke-width="2" fill="none"/><path d="M238.5 561h-1.03v-2h1.03z" fill="#5e5e5e"/><path d="M315.26 181.33L301 185.97v-9.27z" stroke="#5e5e5e" stroke-width="2" fill="#5e5e5e"/><path d="M517.5 562.5H516c-3.3 0-6 2.7-6 6V604c0 3.3-2.7 6-6 6H206c-3.3 0-6-2.7-6-6V187.33c0-3.3 2.7-6 6-6h94" stroke="#5e5e5e" stroke-width="2" fill="none"/><path d="M518.5 563.5h-1.03v-2h1.03z" fill="#5e5e5e"/><path d="M315.26 181.33L301 185.97v-9.27z" stroke="#5e5e5e" stroke-width="2" fill="#5e5e5e"/><path d="M800 86c0-3.3 2.7-6 6-6h268c3.3 0 6 2.7 6 6v28c0 3.3-2.7 6-6 6H806c-3.3 0-6-2.7-6-6z" stroke="#5e5e5e" stroke-width="3" fill="#fff"/><use xlink:href="#J" transform="matrix(1,0,0,1,805,85) translate(104.01851851851852 19.65277777777778)"/><path d="M800 126c0-3.3 2.7-6 6-6h268c3.3 0 6 2.7 6 6v51.33c0 3.32-2.7 6-6 6H806c-3.3 0-6-2.68-6-6z" stroke="#5e5e5e" stroke-width="3" fill="#fff"/><use xlink:href="#k" transform="matrix(1,0,0,1,805,125.00000000000003) translate(64.9753086419753 31.27777777777778)"/><use xlink:href="#K" transform="matrix(1,0,0,1,805,125.00000000000003) translate(108.61728395061728 31.27777777777778)"/><use xlink:href="#L" transform="matrix(1,0,0,1,805,125.00000000000003) translate(150.5925925925926 31.27777777777778)"/><use xlink:href="#M" transform="matrix(1,0,0,1,805,125.00000000000003) translate(169.11111111111111 31.27777777777778)"/><path d="M800 206c0-3.3 2.7-6 6-6h148c3.3 0 6 2.7 6 6v53c0 3.3-2.7 6-6 6H806c-3.3 0-6-2.7-6-6z" stroke="#5e5e5e" stroke-width="3" fill="#fff"/><use xlink:href="#N" transform="matrix(1,0,0,1,805,205) translate(7.129629629629633 17.77777777777778)"/><use xlink:href="#o" transform="matrix(1,0,0,1,805,205) translate(44.16666666666667 17.77777777777778)"/><use xlink:href="#O" transform="matrix(1,0,0,1,805,205) translate(93.48765432098766 17.77777777777778)"/><use xlink:href="#P" transform="matrix(1,0,0,1,805,205) translate(59.5679012345679 44.44444444444444)"/><path d="M980 206c0-3.3 2.7-6 6-6h88c3.3 0 6 2.7 6 6v51.33c0 3.32-2.7 6-6 6h-88c-3.3 0-6-2.68-6-6z" stroke="#5e5e5e" stroke-width="3" fill="#fff"/><use xlink:href="#s" transform="matrix(1,0,0,1,985,205.00000000000003) translate(3.6419753086419746 17.77777777777778)"/><use xlink:href="#t" transform="matrix(1,0,0,1,985,205.00000000000003) translate(39.44444444444444 17.77777777777778)"/><use xlink:href="#u" transform="matrix(1,0,0,1,985,205.00000000000003) translate(6.141975308641975 44.44444444444444)"/><use xlink:href="#v" transform="matrix(1,0,0,1,985,205.00000000000003) translate(30.833333333333332 44.44444444444444)"/><path d="M662.5 252.5H724c3.3 0 6-2.7 6-6v-88.83c0-3.32 2.7-6 6-6h44" stroke="#5e5e5e" stroke-width="2" fill="none"/><path d="M662.53 253.5h-1.03v-2h1.03z" fill="#5e5e5e"/><path d="M795.26 151.67L781 156.3v-9.27z" stroke="#5e5e5e" stroke-width="2" fill="#5e5e5e"/><path d="M1030 265.83V294c0 3.3-2.7 6-6 6H646c-3.3 0-6 2.7-6 6v108c0 3.3-2.7 6-6 6h-14" stroke="#5e5e5e" stroke-width="2" fill="none"/><path d="M1031 265.86h-2v-1.03h2z" fill="#5e5e5e"/><path d="M604.74 420l14.26-4.64v9.28z" stroke="#5e5e5e" stroke-width="2" fill="#5e5e5e"/><path d="M770 346c0-3.3 2.7-6 6-6h268c3.3 0 6 2.7 6 6v28c0 3.3-2.7 6-6 6H776c-3.3 0-6-2.7-6-6z" stroke="#5e5e5e" stroke-width="3" fill="#fff"/><g><use xlink:href="#A" transform="matrix(1,0,0,1,775,345) translate(89.23456790123456 19.65277777777778)"/></g><path d="M770 386c0-3.3 2.7-6 6-6h268c3.3 0 6 2.7 6 6v51.33c0 3.32-2.7 6-6 6H776c-3.3 0-6-2.68-6-6z" stroke="#5e5e5e" stroke-width="3" fill="#fff"/><g><use xlink:href="#k" transform="matrix(1,0,0,1,775,385) translate(8.771604938271608 17.77777777777778)"/><use xlink:href="#Q" transform="matrix(1,0,0,1,775,385) translate(52.41358024691358 17.77777777777778)"/><use xlink:href="#o" transform="matrix(1,0,0,1,775,385) translate(89.45061728395062 17.77777777777778)"/><use xlink:href="#R" transform="matrix(1,0,0,1,775,385) translate(138.7716049382716 17.77777777777778)"/><use xlink:href="#x" transform="matrix(1,0,0,1,775,385) translate(194.32716049382714 17.77777777777778)"/><use xlink:href="#S" transform="matrix(1,0,0,1,775,385) translate(231.3641975308642 17.77777777777778)"/><use xlink:href="#g" transform="matrix(1,0,0,1,775,385) translate(49.82098765432099 44.44444444444444)"/><use xlink:href="#T" transform="matrix(1,0,0,1,775,385) translate(86.85802469135803 44.44444444444444)"/><use xlink:href="#U" transform="matrix(1,0,0,1,775,385) translate(129.94444444444446 44.44444444444444)"/><use xlink:href="#V" transform="matrix(1,0,0,1,775,385) translate(169.38888888888889 44.44444444444444)"/></g><path d="M730 486c0-3.3 2.7-6 6-6h128c3.3 0 6 2.7 6 6v51.33c0 3.32-2.7 6-6 6H736c-3.3 0-6-2.68-6-6z" stroke="#5e5e5e" stroke-width="3" fill="#fff"/><g><use xlink:href="#D" transform="matrix(1,0,0,1,735,485) translate(9.444444444444443 17.77777777777778)"/><use xlink:href="#u" transform="matrix(1,0,0,1,735,485) translate(65 17.77777777777778)"/><use xlink:href="#y" transform="matrix(1,0,0,1,735,485) translate(89.69135802469137 17.77777777777778)"/><use xlink:href="#E" transform="matrix(1,0,0,1,735,485) translate(15.030864197530867 44.44444444444444)"/><use xlink:href="#F" transform="matrix(1,0,0,1,735,485) translate(55.70987654320988 44.44444444444444)"/></g><path d="M890 487.67c0-3.32 2.7-6 6-6h88c3.3 0 6 2.68 6 6V539c0 3.3-2.7 6-6 6h-88c-3.3 0-6-2.7-6-6z" stroke="#5e5e5e" stroke-width="3" fill="#fff"/><g><use xlink:href="#D" transform="matrix(1,0,0,1,895,486.6666666666666) translate(7.962962962962962 17.77777777777778)"/><use xlink:href="#G" transform="matrix(1,0,0,1,895,486.6666666666666) translate(63.518518518518526 17.77777777777778)"/><use xlink:href="#E" transform="matrix(1,0,0,1,895,486.6666666666666) translate(1.2037037037037095 44.44444444444444)"/><use xlink:href="#H" transform="matrix(1,0,0,1,895,486.6666666666666) translate(41.88271604938272 44.44444444444444)"/></g><path d="M1010 487.67c0-3.32 2.7-6 6-6h128c3.3 0 6 2.68 6 6v53c0 3.3-2.7 6-6 6h-128c-3.3 0-6-2.7-6-6z" stroke="#5e5e5e" stroke-width="3" fill="#fff"/><g><use xlink:href="#D" transform="matrix(1,0,0,1,1015,486.6666666666665) translate(3.3024691358024683 31.52777777777778)"/><use xlink:href="#u" transform="matrix(1,0,0,1,1015,486.6666666666665) translate(58.85802469135803 31.52777777777778)"/><use xlink:href="#I" transform="matrix(1,0,0,1,1015,486.6666666666665) translate(83.5493827160494 31.52777777777778)"/></g><path d="M727.5 511.67H716c-3.3 0-6-2.7-6-6V276c0-3.3 2.7-6 6-6h54.5c3.3 0 6-2.7 6-6v-84.5c0-1.93 1.57-3.5 3.5-3.5" stroke="#5e5e5e" stroke-width="2" fill="none"/><path d="M728.5 512.67h-1.03v-2h1.03z" fill="#5e5e5e"/><path d="M795.26 176L781 180.64v-9.28z" stroke="#5e5e5e" stroke-width="2" fill="#5e5e5e"/><path d="M1007.5 514.17h-1.5c-3.3 0-6 2.68-6 6V604c0 3.3-2.7 6-6 6H206c-3.3 0-6-2.7-6-6V187.33c0-3.3 2.7-6 6-6h94" stroke="#5e5e5e" stroke-width="2" fill="none"/><path d="M1008.5 515.17h-1.03v-2h1.03z" fill="#5e5e5e"/><path d="M315.26 181.33L301 185.97v-9.27z" stroke="#5e5e5e" stroke-width="2" fill="#5e5e5e"/><path d="M310 686c0-3.3 2.7-6 6-6h268c3.3 0 6 2.7 6 6v28c0 3.3-2.7 6-6 6H316c-3.3 0-6-2.7-6-6z" stroke="#5e5e5e" stroke-width="3" fill="#fff"/><g><use xlink:href="#A" transform="matrix(1,0,0,1,315,685) translate(89.23456790123456 19.65277777777778)"/></g><path d="M310 726c0-3.3 2.7-6 6-6h268c3.3 0 6 2.7 6 6v51.33c0 3.32-2.7 6-6 6H316c-3.3 0-6-2.68-6-6z" stroke="#5e5e5e" stroke-width="3" fill="#fff"/><g><use xlink:href="#k" transform="matrix(1,0,0,1,315,725.0000000000001) translate(5.65432098765433 17.77777777777778)"/><use xlink:href="#W" transform="matrix(1,0,0,1,315,725.0000000000001) translate(49.296296296296305 17.77777777777778)"/><use xlink:href="#m" transform="matrix(1,0,0,1,315,725.0000000000001) translate(86.33333333333334 17.77777777777778)"/><use xlink:href="#X" transform="matrix(1,0,0,1,315,725.0000000000001) translate(117.19753086419755 17.77777777777778)"/><use xlink:href="#B" transform="matrix(1,0,0,1,315,725.0000000000001) translate(160.40740740740742 17.77777777777778)"/><use xlink:href="#Y" transform="matrix(1,0,0,1,315,725.0000000000001) translate(191.27160493827162 17.77777777777778)"/><use xlink:href="#o" transform="matrix(1,0,0,1,315,725.0000000000001) translate(92.93827160493828 44.44444444444444)"/><use xlink:href="#Z" transform="matrix(1,0,0,1,315,725.0000000000001) translate(142.25925925925927 44.44444444444444)"/></g><path d="M240 806c0-3.3 2.7-6 6-6h128c3.3 0 6 2.7 6 6v51.33c0 3.32-2.7 6-6 6H246c-3.3 0-6-2.68-6-6z" stroke="#5e5e5e" stroke-width="3" fill="#fff"/><g><use xlink:href="#D" transform="matrix(1,0,0,1,245,805) translate(9.444444444444443 17.77777777777778)"/><use xlink:href="#u" transform="matrix(1,0,0,1,245,805) translate(65 17.77777777777778)"/><use xlink:href="#y" transform="matrix(1,0,0,1,245,805) translate(89.69135802469137 17.77777777777778)"/><use xlink:href="#E" transform="matrix(1,0,0,1,245,805) translate(15.030864197530867 44.44444444444444)"/><use xlink:href="#F" transform="matrix(1,0,0,1,245,805) translate(55.70987654320988 44.44444444444444)"/></g><path d="M400 807.67c0-3.32 2.7-6 6-6h88c3.3 0 6 2.68 6 6V859c0 3.3-2.7 6-6 6h-88c-3.3 0-6-2.7-6-6z" stroke="#5e5e5e" stroke-width="3" fill="#fff"/><g><use xlink:href="#D" transform="matrix(1,0,0,1,405,806.6666666666666) translate(7.962962962962962 17.77777777777778)"/><use xlink:href="#G" transform="matrix(1,0,0,1,405,806.6666666666666) translate(63.518518518518526 17.77777777777778)"/><use xlink:href="#E" transform="matrix(1,0,0,1,405,806.6666666666666) translate(1.2037037037037095 44.44444444444444)"/><use xlink:href="#H" transform="matrix(1,0,0,1,405,806.6666666666666) translate(41.88271604938272 44.44444444444444)"/></g><path d="M520 807.67c0-3.32 2.7-6 6-6h128c3.3 0 6 2.68 6 6v53c0 3.3-2.7 6-6 6H526c-3.3 0-6-2.7-6-6z" stroke="#5e5e5e" stroke-width="3" fill="#fff"/><g><use xlink:href="#D" transform="matrix(1,0,0,1,525,806.6666666666666) translate(3.3024691358024683 31.52777777777778)"/><use xlink:href="#u" transform="matrix(1,0,0,1,525,806.6666666666666) translate(58.85802469135803 31.52777777777778)"/><use xlink:href="#I" transform="matrix(1,0,0,1,525,806.6666666666666) translate(83.5493827160494 31.52777777777778)"/></g><path d="M517.5 834.17H516c-3.3 0-6 2.68-6 6V884c0 3.3-2.7 6-6 6H206c-3.3 0-6-2.7-6-6V187.33c0-3.3 2.7-6 6-6h94" stroke="#5e5e5e" stroke-width="2" fill="none"/><path d="M518.5 835.17h-1.03v-2h1.03z" fill="#5e5e5e"/><path d="M315.26 181.33L301 185.97v-9.27z" stroke="#5e5e5e" stroke-width="2" fill="#5e5e5e"/><path d="M330 262.5v15c0 3.3-2.7 6-6 6h-98c-3.3 0-6 2.7-6 6v361c0 3.3 2.7 6 6 6h220.5c1.93 0 3.5 1.57 3.5 3.5" stroke="#5e5e5e" stroke-width="2" fill="none"/><path d="M331 262.53h-2v-1.03h2z" fill="#5e5e5e"/><path d="M450 675.26L445.36 661h9.28z" stroke="#5e5e5e" stroke-width="2" fill="#5e5e5e"/><path d="M237.5 831.67h-33c-3.3 0-6-2.7-6-6V187.33c0-3.3 2.7-6 6-6H300" stroke="#5e5e5e" stroke-width="2" fill="none"/><path d="M238.5 832.67h-1.03v-2h1.03z" fill="#5e5e5e"/><path d="M315.26 181.33L301 185.97v-9.27z" stroke="#5e5e5e" stroke-width="2" fill="#5e5e5e"/><path d="M880 267.5V320" stroke="#5e5e5e" stroke-width="2" fill="none"/><path d="M881 267.53h-2v-1.03h2z" fill="#5e5e5e"/><path d="M880 335.26L875.36 321h9.28z" stroke="#5e5e5e" stroke-width="2" fill="#5e5e5e"/><defs><path fill="#333" d="M185-189c-5-48-123-54-124 2 14 75 158 14 163 119 3 78-121 87-175 55-17-10-28-26-33-46l33-7c5 56 141 63 141-1 0-78-155-14-162-118-5-82 145-84 179-34 5 7 8 16 11 25" id="aa"/><path fill="#333" d="M59-47c-2 24 18 29 38 22v24C64 9 27 4 27-40v-127H5v-23h24l9-43h21v43h35v23H59v120" id="ab"/><path fill="#333" d="M141-36C126-15 110 5 73 4 37 3 15-17 15-53c-1-64 63-63 125-63 3-35-9-54-41-54-24 1-41 7-42 31l-33-3c5-37 33-52 76-52 45 0 72 20 72 64v82c-1 20 7 32 28 27v20c-31 9-61-2-59-35zM48-53c0 20 12 33 32 33 41-3 63-29 60-74-43 2-92-5-92 41" id="ac"/><path fill="#333" d="M114-163C36-179 61-72 57 0H25l-1-190h30c1 12-1 29 2 39 6-27 23-49 58-41v29" id="ad"/><path fill="#333" d="M96-169c-40 0-48 33-48 73s9 75 48 75c24 0 41-14 43-38l32 2c-6 37-31 61-74 61-59 0-76-41-82-99-10-93 101-131 147-64 4 7 5 14 7 22l-32 3c-4-21-16-35-41-35" id="ae"/><path fill="#333" d="M100-194c63 0 86 42 84 106H49c0 40 14 67 53 68 26 1 43-12 49-29l28 8c-11 28-37 45-77 45C44 4 14-33 15-96c1-61 26-98 85-98zm52 81c6-60-76-77-97-28-3 7-6 17-6 28h103" id="af"/><path fill="#333" d="M117-194c89-4 53 116 60 194h-32v-121c0-31-8-49-39-48C34-167 62-67 57 0H25l-1-190h30c1 10-1 24 2 32 11-22 29-35 61-36" id="ag"/><g id="a"><use transform="matrix(0.06172839506172839,0,0,0.06172839506172839,0,0)" xlink:href="#aa"/><use transform="matrix(0.06172839506172839,0,0,0.06172839506172839,14.814814814814813,0)" xlink:href="#ab"/><use transform="matrix(0.06172839506172839,0,0,0.06172839506172839,20.98765432098765,0)" xlink:href="#ac"/><use transform="matrix(0.06172839506172839,0,0,0.06172839506172839,33.33333333333333,0)" xlink:href="#ad"/><use transform="matrix(0.06172839506172839,0,0,0.06172839506172839,40.679012345679006,0)" xlink:href="#ab"/><use transform="matrix(0.06172839506172839,0,0,0.06172839506172839,46.85185185185185,0)" xlink:href="#aa"/><use transform="matrix(0.06172839506172839,0,0,0.06172839506172839,61.66666666666666,0)" xlink:href="#ae"/><use transform="matrix(0.06172839506172839,0,0,0.06172839506172839,72.77777777777777,0)" xlink:href="#af"/><use transform="matrix(0.06172839506172839,0,0,0.06172839506172839,85.12345679012346,0)" xlink:href="#ag"/><use transform="matrix(0.06172839506172839,0,0,0.06172839506172839,97.46913580246914,0)" xlink:href="#af"/></g><path fill="#333" d="M30 0v-248h187v28H63v79h144v27H63v87h162V0H30" id="ah"/><path fill="#333" d="M141 0L90-78 38 0H4l68-98-65-92h35l48 74 47-74h35l-64 92 68 98h-35" id="ai"/><path fill="#333" d="M210-169c-67 3-38 105-44 169h-31v-121c0-29-5-50-35-48C34-165 62-65 56 0H25l-1-190h30c1 10-1 24 2 32 10-44 99-50 107 0 11-21 27-35 58-36 85-2 47 119 55 194h-31v-121c0-29-5-49-35-48" id="aj"/><path fill="#333" d="M115-194c55 1 70 41 70 98S169 2 115 4C84 4 66-9 55-30l1 105H24l-1-265h31l2 30c10-21 28-34 59-34zm-8 174c40 0 45-34 45-75s-6-73-45-74c-42 0-51 32-51 76 0 43 10 73 51 73" id="ak"/><path fill="#333" d="M24 0v-261h32V0H24" id="al"/><g id="b"><use transform="matrix(0.06172839506172839,0,0,0.06172839506172839,0,0)" xlink:href="#ah"/><use transform="matrix(0.06172839506172839,0,0,0.06172839506172839,14.814814814814813,0)" xlink:href="#ai"/><use transform="matrix(0.06172839506172839,0,0,0.06172839506172839,25.925925925925924,0)" xlink:href="#ac"/><use transform="matrix(0.06172839506172839,0,0,0.06172839506172839,38.2716049382716,0)" xlink:href="#aj"/><use transform="matrix(0.06172839506172839,0,0,0.06172839506172839,56.72839506172839,0)" xlink:href="#ak"/><use transform="matrix(0.06172839506172839,0,0,0.06172839506172839,69.07407407407408,0)" xlink:href="#al"/><use transform="matrix(0.06172839506172839,0,0,0.06172839506172839,73.95061728395062,0)" xlink:href="#af"/></g><path fill="#333" d="M100-194c62-1 85 37 85 99 1 63-27 99-86 99S16-35 15-95c0-66 28-99 85-99zM99-20c44 1 53-31 53-75 0-43-8-75-51-75s-53 32-53 75 10 74 51 75" id="am"/><path fill="#333" d="M179-190L93 31C79 59 56 82 12 73V49c39 6 53-20 64-50L1-190h34L92-34l54-156h33" id="an"/><g id="c"><use transform="matrix(0.06172839506172839,0,0,0.06172839506172839,0,0)" xlink:href="#aa"/><use transform="matrix(0.06172839506172839,0,0,0.06172839506172839,14.814814814814813,0)" xlink:href="#ab"/><use transform="matrix(0.06172839506172839,0,0,0.06172839506172839,20.98765432098765,0)" xlink:href="#am"/><use transform="matrix(0.06172839506172839,0,0,0.06172839506172839,33.33333333333333,0)" xlink:href="#ad"/><use transform="matrix(0.06172839506172839,0,0,0.06172839506172839,40.679012345679006,0)" xlink:href="#an"/></g><path fill="#333" d="M158-156l-14 65h45v19h-49L124 0h-19l15-72H56L41 0H22l15-72H2v-19h39l14-65H11v-19h48l15-71h20l-16 71h64l16-71h19l-16 71h37v19h-40zm-83 0L61-91h63l14-65H75" id="ao"/><path fill="#333" d="M27 0v-27h64v-190l-56 39v-29l58-41h29v221h61V0H27" id="ap"/><g id="d"><use transform="matrix(0.06172839506172839,0,0,0.06172839506172839,0,0)" xlink:href="#ao"/><use transform="matrix(0.06172839506172839,0,0,0.06172839506172839,12.345679012345679,0)" xlink:href="#ap"/></g><path fill="#333" d="M127-220V0H93v-220H8v-28h204v28h-85" id="aq"/><path fill="#333" d="M106-169C34-169 62-67 57 0H25v-261h32l-1 103c12-21 28-36 61-36 89 0 53 116 60 194h-32v-121c2-32-8-49-39-48" id="ar"/><path fill="#333" d="M24-231v-30h32v30H24zM24 0v-190h32V0H24" id="as"/><path fill="#333" d="M135-143c-3-34-86-38-87 0 15 53 115 12 119 90S17 21 10-45l28-5c4 36 97 45 98 0-10-56-113-15-118-90-4-57 82-63 122-42 12 7 21 19 24 35" id="at"/><g id="e"><use transform="matrix(0.06172839506172839,0,0,0.06172839506172839,0,0)" xlink:href="#aq"/><use transform="matrix(0.06172839506172839,0,0,0.06172839506172839,13.518518518518517,0)" xlink:href="#ar"/><use transform="matrix(0.06172839506172839,0,0,0.06172839506172839,25.864197530864196,0)" xlink:href="#as"/><use transform="matrix(0.06172839506172839,0,0,0.06172839506172839,30.74074074074074,0)" xlink:href="#at"/></g><g id="f"><use transform="matrix(0.06172839506172839,0,0,0.06172839506172839,0,0)" xlink:href="#as"/><use transform="matrix(0.06172839506172839,0,0,0.06172839506172839,4.876543209876543,0)" xlink:href="#at"/></g><g id="g"><use transform="matrix(0.06172839506172839,0,0,0.06172839506172839,0,0)" xlink:href="#ab"/><use transform="matrix(0.06172839506172839,0,0,0.06172839506172839,6.172839506172839,0)" xlink:href="#ar"/><use transform="matrix(0.06172839506172839,0,0,0.06172839506172839,18.51851851851852,0)" xlink:href="#af"/></g><path fill="#333" d="M101-234c-31-9-42 10-38 44h38v23H63V0H32v-167H5v-23h27c-7-52 17-82 69-68v24" id="au"/><g id="h"><use transform="matrix(0.06172839506172839,0,0,0.06172839506172839,0,0)" xlink:href="#au"/><use transform="matrix(0.06172839506172839,0,0,0.06172839506172839,6.172839506172839,0)" xlink:href="#as"/><use transform="matrix(0.06172839506172839,0,0,0.06172839506172839,11.049382716049383,0)" xlink:href="#ad"/><use transform="matrix(0.06172839506172839,0,0,0.06172839506172839,18.395061728395063,0)" xlink:href="#at"/><use transform="matrix(0.06172839506172839,0,0,0.06172839506172839,29.506172839506174,0)" xlink:href="#ab"/></g><g id="i"><use transform="matrix(0.06172839506172839,0,0,0.06172839506172839,0,0)" xlink:href="#af"/><use transform="matrix(0.06172839506172839,0,0,0.06172839506172839,12.345679012345679,0)" xlink:href="#ai"/><use transform="matrix(0.06172839506172839,0,0,0.06172839506172839,23.45679012345679,0)" xlink:href="#ac"/><use transform="matrix(0.06172839506172839,0,0,0.06172839506172839,35.80246913580247,0)" xlink:href="#aj"/><use transform="matrix(0.06172839506172839,0,0,0.06172839506172839,54.25925925925925,0)" xlink:href="#ak"/><use transform="matrix(0.06172839506172839,0,0,0.06172839506172839,66.60493827160494,0)" xlink:href="#al"/><use transform="matrix(0.06172839506172839,0,0,0.06172839506172839,71.48148148148148,0)" xlink:href="#af"/></g><path fill="#333" d="M33 0v-38h34V0H33" id="av"/><g id="j"><use transform="matrix(0.06172839506172839,0,0,0.06172839506172839,0,0)" xlink:href="#at"/><use transform="matrix(0.06172839506172839,0,0,0.06172839506172839,11.11111111111111,0)" xlink:href="#ab"/><use transform="matrix(0.06172839506172839,0,0,0.06172839506172839,17.28395061728395,0)" xlink:href="#am"/><use transform="matrix(0.06172839506172839,0,0,0.06172839506172839,29.629629629629626,0)" xlink:href="#ad"/><use transform="matrix(0.06172839506172839,0,0,0.06172839506172839,36.9753086419753,0)" xlink:href="#an"/><use transform="matrix(0.06172839506172839,0,0,0.06172839506172839,46.419753086419746,0)" xlink:href="#av"/></g><path fill="#333" d="M137-103V0h-34v-103L8-248h37l75 118 75-118h37" id="aw"/><path fill="#333" d="M84 4C-5 8 30-112 23-190h32v120c0 31 7 50 39 49 72-2 45-101 50-169h31l1 190h-30c-1-10 1-25-2-33-11 22-28 36-60 37" id="ax"/><g id="k"><use transform="matrix(0.06172839506172839,0,0,0.06172839506172839,0,0)" xlink:href="#aw"/><use transform="matrix(0.06172839506172839,0,0,0.06172839506172839,12.777777777777777,0)" xlink:href="#am"/><use transform="matrix(0.06172839506172839,0,0,0.06172839506172839,25.123456790123456,0)" xlink:href="#ax"/></g><path fill="#333" d="M206 0h-36l-40-164L89 0H53L-1-190h32L70-26l43-164h34l41 164 42-164h31" id="ay"/><path fill="#333" d="M143 0L79-87 56-68V0H24v-261h32v163l83-92h37l-77 82L181 0h-38" id="az"/><g id="l"><use transform="matrix(0.06172839506172839,0,0,0.06172839506172839,0,0)" xlink:href="#ay"/><use transform="matrix(0.06172839506172839,0,0,0.06172839506172839,15.987654320987653,0)" xlink:href="#ac"/><use transform="matrix(0.06172839506172839,0,0,0.06172839506172839,28.333333333333332,0)" xlink:href="#az"/><use transform="matrix(0.06172839506172839,0,0,0.06172839506172839,39.44444444444444,0)" xlink:href="#af"/></g><g id="m"><use transform="matrix(0.06172839506172839,0,0,0.06172839506172839,0,0)" xlink:href="#ax"/><use transform="matrix(0.06172839506172839,0,0,0.06172839506172839,12.345679012345679,0)" xlink:href="#ak"/></g><g id="n"><use transform="matrix(0.06172839506172839,0,0,0.06172839506172839,0,0)" xlink:href="#as"/><use transform="matrix(0.06172839506172839,0,0,0.06172839506172839,4.876543209876543,0)" xlink:href="#ag"/></g><g id="o"><use transform="matrix(0.06172839506172839,0,0,0.06172839506172839,0,0)" xlink:href="#an"/><use transform="matrix(0.06172839506172839,0,0,0.06172839506172839,11.11111111111111,0)" xlink:href="#am"/><use transform="matrix(0.06172839506172839,0,0,0.06172839506172839,23.45679012345679,0)" xlink:href="#ax"/><use transform="matrix(0.06172839506172839,0,0,0.06172839506172839,35.80246913580247,0)" xlink:href="#ad"/></g><path fill="#333" d="M115-194c53 0 69 39 70 98 0 66-23 100-70 100C84 3 66-7 56-30L54 0H23l1-261h32v101c10-23 28-34 59-34zm-8 174c40 0 45-34 45-75 0-40-5-75-45-74-42 0-51 32-51 76 0 43 10 73 51 73" id="aA"/><path fill="#333" d="M85-194c31 0 48 13 60 33l-1-100h32l1 261h-30c-2-10 0-23-3-31C134-8 116 4 85 4 32 4 16-35 15-94c0-66 23-100 70-100zm9 24c-40 0-46 34-46 75 0 40 6 74 45 74 42 0 51-32 51-76 0-42-9-74-50-73" id="aB"/><g id="p"><use transform="matrix(0.06172839506172839,0,0,0.06172839506172839,0,0)" xlink:href="#aA"/><use transform="matrix(0.06172839506172839,0,0,0.06172839506172839,12.345679012345679,0)" xlink:href="#af"/><use transform="matrix(0.06172839506172839,0,0,0.06172839506172839,24.691358024691358,0)" xlink:href="#aB"/></g><path fill="#333" d="M143 4C61 4 22-44 18-125c-5-107 100-154 193-111 17 8 29 25 37 43l-32 9c-13-25-37-40-76-40-61 0-88 39-88 99 0 61 29 100 91 101 35 0 62-11 79-27v-45h-74v-28h105v86C228-13 192 4 143 4" id="aC"/><g id="q"><use transform="matrix(0.06172839506172839,0,0,0.06172839506172839,0,0)" xlink:href="#aC"/><use transform="matrix(0.06172839506172839,0,0,0.06172839506172839,17.28395061728395,0)" xlink:href="#af"/><use transform="matrix(0.06172839506172839,0,0,0.06172839506172839,29.629629629629626,0)" xlink:href="#ab"/></g><g id="r"><use transform="matrix(0.06172839506172839,0,0,0.06172839506172839,0,0)" xlink:href="#ax"/><use transform="matrix(0.06172839506172839,0,0,0.06172839506172839,12.345679012345679,0)" xlink:href="#ak"/></g><g id="s"><use transform="matrix(0.06172839506172839,0,0,0.06172839506172839,0,0)" xlink:href="#aC"/><use transform="matrix(0.06172839506172839,0,0,0.06172839506172839,17.28395061728395,0)" xlink:href="#am"/></g><g id="t"><use transform="matrix(0.06172839506172839,0,0,0.06172839506172839,0,0)" xlink:href="#aA"/><use transform="matrix(0.06172839506172839,0,0,0.06172839506172839,12.345679012345679,0)" xlink:href="#ac"/><use transform="matrix(0.06172839506172839,0,0,0.06172839506172839,24.691358024691358,0)" xlink:href="#ae"/><use transform="matrix(0.06172839506172839,0,0,0.06172839506172839,35.80246913580247,0)" xlink:href="#az"/></g><g id="u"><use transform="matrix(0.06172839506172839,0,0,0.06172839506172839,0,0)" xlink:href="#ab"/><use transform="matrix(0.06172839506172839,0,0,0.06172839506172839,6.172839506172839,0)" xlink:href="#am"/></g><g id="v"><use transform="matrix(0.06172839506172839,0,0,0.06172839506172839,0,0)" xlink:href="#at"/><use transform="matrix(0.06172839506172839,0,0,0.06172839506172839,11.11111111111111,0)" xlink:href="#al"/><use transform="matrix(0.06172839506172839,0,0,0.06172839506172839,15.987654320987653,0)" xlink:href="#af"/><use transform="matrix(0.06172839506172839,0,0,0.06172839506172839,28.333333333333332,0)" xlink:href="#af"/><use transform="matrix(0.06172839506172839,0,0,0.06172839506172839,40.67901234567901,0)" xlink:href="#ak"/></g><path fill="#333" d="M30 0v-248h33v221h125V0H30" id="aD"/><g id="w"><use transform="matrix(0.06172839506172839,0,0,0.06172839506172839,0,0)" xlink:href="#aD"/><use transform="matrix(0.06172839506172839,0,0,0.06172839506172839,12.345679012345679,0)" xlink:href="#am"/><use transform="matrix(0.06172839506172839,0,0,0.06172839506172839,24.691358024691358,0)" xlink:href="#am"/><use transform="matrix(0.06172839506172839,0,0,0.06172839506172839,37.03703703703704,0)" xlink:href="#az"/></g><g id="x"><use transform="matrix(0.06172839506172839,0,0,0.06172839506172839,0,0)" xlink:href="#am"/><use transform="matrix(0.06172839506172839,0,0,0.06172839506172839,12.345679012345679,0)" xlink:href="#ax"/><use transform="matrix(0.06172839506172839,0,0,0.06172839506172839,24.691358024691358,0)" xlink:href="#ab"/></g><g id="y"><use transform="matrix(0.06172839506172839,0,0,0.06172839506172839,0,0)" xlink:href="#ab"/><use transform="matrix(0.06172839506172839,0,0,0.06172839506172839,6.172839506172839,0)" xlink:href="#ar"/><use transform="matrix(0.06172839506172839,0,0,0.06172839506172839,18.51851851851852,0)" xlink:href="#af"/></g><g id="z"><use transform="matrix(0.06172839506172839,0,0,0.06172839506172839,0,0)" xlink:href="#ay"/><use transform="matrix(0.06172839506172839,0,0,0.06172839506172839,15.987654320987653,0)" xlink:href="#as"/><use transform="matrix(0.06172839506172839,0,0,0.06172839506172839,20.864197530864196,0)" xlink:href="#ag"/><use transform="matrix(0.06172839506172839,0,0,0.06172839506172839,33.20987654320987,0)" xlink:href="#aB"/><use transform="matrix(0.06172839506172839,0,0,0.06172839506172839,45.55555555555555,0)" xlink:href="#am"/><use transform="matrix(0.06172839506172839,0,0,0.06172839506172839,57.90123456790123,0)" xlink:href="#ay"/></g><path fill="#333" d="M30-248c118-7 216 8 213 122C240-48 200 0 122 0H30v-248zM63-27c89 8 146-16 146-99s-60-101-146-95v194" id="aE"/><g id="A"><use transform="matrix(0.06172839506172839,0,0,0.06172839506172839,0,0)" xlink:href="#aE"/><use transform="matrix(0.06172839506172839,0,0,0.06172839506172839,15.987654320987653,0)" xlink:href="#af"/><use transform="matrix(0.06172839506172839,0,0,0.06172839506172839,28.333333333333332,0)" xlink:href="#ac"/><use transform="matrix(0.06172839506172839,0,0,0.06172839506172839,40.67901234567901,0)" xlink:href="#aB"/><use transform="matrix(0.06172839506172839,0,0,0.06172839506172839,53.02469135802469,0)" xlink:href="#ah"/><use transform="matrix(0.06172839506172839,0,0,0.06172839506172839,67.8395061728395,0)" xlink:href="#ag"/><use transform="matrix(0.06172839506172839,0,0,0.06172839506172839,80.18518518518519,0)" xlink:href="#aB"/></g><path fill="#333" d="M177-190C167-65 218 103 67 71c-23-6-38-20-44-43l32-5c15 47 100 32 89-28v-30C133-14 115 1 83 1 29 1 15-40 15-95c0-56 16-97 71-98 29-1 48 16 59 35 1-10 0-23 2-32h30zM94-22c36 0 50-32 50-73 0-42-14-75-50-75-39 0-46 34-46 75s6 73 46 73" id="aF"/><g id="B"><use transform="matrix(0.06172839506172839,0,0,0.06172839506172839,0,0)" xlink:href="#aF"/><use transform="matrix(0.06172839506172839,0,0,0.06172839506172839,12.345679012345679,0)" xlink:href="#am"/></g><g id="C"><use transform="matrix(0.06172839506172839,0,0,0.06172839506172839,0,0)" xlink:href="#aA"/><use transform="matrix(0.06172839506172839,0,0,0.06172839506172839,12.345679012345679,0)" xlink:href="#ac"/><use transform="matrix(0.06172839506172839,0,0,0.06172839506172839,24.691358024691358,0)" xlink:href="#ae"/><use transform="matrix(0.06172839506172839,0,0,0.06172839506172839,35.80246913580247,0)" xlink:href="#az"/></g><path fill="#333" d="M160-131c35 5 61 23 61 61C221 17 115-2 30 0v-248c76 3 177-17 177 60 0 33-19 50-47 57zm-97-11c50-1 110 9 110-42 0-47-63-36-110-37v79zm0 115c55-2 124 14 124-45 0-56-70-42-124-44v89" id="aG"/><g id="D"><use transform="matrix(0.06172839506172839,0,0,0.06172839506172839,0,0)" xlink:href="#aG"/><use transform="matrix(0.06172839506172839,0,0,0.06172839506172839,14.814814814814813,0)" xlink:href="#ac"/><use transform="matrix(0.06172839506172839,0,0,0.06172839506172839,27.160493827160494,0)" xlink:href="#ae"/><use transform="matrix(0.06172839506172839,0,0,0.06172839506172839,38.27160493827161,0)" xlink:href="#az"/></g><g id="E"><use transform="matrix(0.06172839506172839,0,0,0.06172839506172839,0,0)" xlink:href="#al"/><use transform="matrix(0.06172839506172839,0,0,0.06172839506172839,4.876543209876543,0)" xlink:href="#ac"/><use transform="matrix(0.06172839506172839,0,0,0.06172839506172839,17.22222222222222,0)" xlink:href="#at"/><use transform="matrix(0.06172839506172839,0,0,0.06172839506172839,28.333333333333332,0)" xlink:href="#ab"/></g><g id="F"><use transform="matrix(0.06172839506172839,0,0,0.06172839506172839,0,0)" xlink:href="#at"/><use transform="matrix(0.06172839506172839,0,0,0.06172839506172839,11.11111111111111,0)" xlink:href="#ae"/><use transform="matrix(0.06172839506172839,0,0,0.06172839506172839,22.22222222222222,0)" xlink:href="#af"/><use transform="matrix(0.06172839506172839,0,0,0.06172839506172839,34.5679012345679,0)" xlink:href="#ag"/><use transform="matrix(0.06172839506172839,0,0,0.06172839506172839,46.913580246913575,0)" xlink:href="#af"/></g><g id="G"><use transform="matrix(0.06172839506172839,0,0,0.06172839506172839,0,0)" xlink:href="#ab"/><use transform="matrix(0.06172839506172839,0,0,0.06172839506172839,6.172839506172839,0)" xlink:href="#am"/></g><path fill="#333" d="M108 0H70L1-190h34L89-25l56-165h34" id="aH"/><g id="H"><use transform="matrix(0.06172839506172839,0,0,0.06172839506172839,0,0)" xlink:href="#at"/><use transform="matrix(0.06172839506172839,0,0,0.06172839506172839,11.11111111111111,0)" xlink:href="#ac"/><use transform="matrix(0.06172839506172839,0,0,0.06172839506172839,23.45679012345679,0)" xlink:href="#aH"/><use transform="matrix(0.06172839506172839,0,0,0.06172839506172839,34.5679012345679,0)" xlink:href="#af"/></g><g id="I"><use transform="matrix(0.06172839506172839,0,0,0.06172839506172839,0,0)" xlink:href="#at"/><use transform="matrix(0.06172839506172839,0,0,0.06172839506172839,11.11111111111111,0)" xlink:href="#ab"/><use transform="matrix(0.06172839506172839,0,0,0.06172839506172839,17.28395061728395,0)" xlink:href="#ac"/><use transform="matrix(0.06172839506172839,0,0,0.06172839506172839,29.629629629629626,0)" xlink:href="#ad"/><use transform="matrix(0.06172839506172839,0,0,0.06172839506172839,36.9753086419753,0)" xlink:href="#ab"/></g><g id="J"><use transform="matrix(0.06172839506172839,0,0,0.06172839506172839,0,0)" xlink:href="#aa"/><use transform="matrix(0.06172839506172839,0,0,0.06172839506172839,14.814814814814813,0)" xlink:href="#ae"/><use transform="matrix(0.06172839506172839,0,0,0.06172839506172839,25.925925925925924,0)" xlink:href="#af"/><use transform="matrix(0.06172839506172839,0,0,0.06172839506172839,38.2716049382716,0)" xlink:href="#ag"/><use transform="matrix(0.06172839506172839,0,0,0.06172839506172839,50.61728395061728,0)" xlink:href="#af"/></g><g id="K"><use transform="matrix(0.06172839506172839,0,0,0.06172839506172839,0,0)" xlink:href="#at"/><use transform="matrix(0.06172839506172839,0,0,0.06172839506172839,11.11111111111111,0)" xlink:href="#af"/><use transform="matrix(0.06172839506172839,0,0,0.06172839506172839,23.45679012345679,0)" xlink:href="#af"/></g><use transform="matrix(0.06172839506172839,0,0,0.06172839506172839,0,0)" xlink:href="#ac" id="L"/><g id="M"><use transform="matrix(0.06172839506172839,0,0,0.06172839506172839,0,0)" xlink:href="#aA"/><use transform="matrix(0.06172839506172839,0,0,0.06172839506172839,12.345679012345679,0)" xlink:href="#as"/><use transform="matrix(0.06172839506172839,0,0,0.06172839506172839,17.22222222222222,0)" xlink:href="#ad"/><use transform="matrix(0.06172839506172839,0,0,0.06172839506172839,24.5679012345679,0)" xlink:href="#aB"/></g><g id="N"><use transform="matrix(0.06172839506172839,0,0,0.06172839506172839,0,0)" xlink:href="#ak"/><use transform="matrix(0.06172839506172839,0,0,0.06172839506172839,12.345679012345679,0)" xlink:href="#ax"/><use transform="matrix(0.06172839506172839,0,0,0.06172839506172839,24.691358024691358,0)" xlink:href="#ab"/></g><g id="O"><use transform="matrix(0.06172839506172839,0,0,0.06172839506172839,0,0)" xlink:href="#ar"/><use transform="matrix(0.06172839506172839,0,0,0.06172839506172839,12.345679012345679,0)" xlink:href="#ac"/><use transform="matrix(0.06172839506172839,0,0,0.06172839506172839,24.691358024691358,0)" xlink:href="#ag"/><use transform="matrix(0.06172839506172839,0,0,0.06172839506172839,37.03703703703704,0)" xlink:href="#aB"/></g><g id="P"><use transform="matrix(0.06172839506172839,0,0,0.06172839506172839,0,0)" xlink:href="#am"/><use transform="matrix(0.06172839506172839,0,0,0.06172839506172839,12.345679012345679,0)" xlink:href="#ax"/><use transform="matrix(0.06172839506172839,0,0,0.06172839506172839,24.691358024691358,0)" xlink:href="#ab"/></g><g id="Q"><use transform="matrix(0.06172839506172839,0,0,0.06172839506172839,0,0)" xlink:href="#ak"/><use transform="matrix(0.06172839506172839,0,0,0.06172839506172839,12.345679012345679,0)" xlink:href="#ax"/><use transform="matrix(0.06172839506172839,0,0,0.06172839506172839,24.691358024691358,0)" xlink:href="#ab"/></g><g id="R"><use transform="matrix(0.06172839506172839,0,0,0.06172839506172839,0,0)" xlink:href="#ar"/><use transform="matrix(0.06172839506172839,0,0,0.06172839506172839,12.345679012345679,0)" xlink:href="#ac"/><use transform="matrix(0.06172839506172839,0,0,0.06172839506172839,24.691358024691358,0)" xlink:href="#ag"/><use transform="matrix(0.06172839506172839,0,0,0.06172839506172839,37.03703703703704,0)" xlink:href="#aB"/></g><g id="S"><use transform="matrix(0.06172839506172839,0,0,0.06172839506172839,0,0)" xlink:href="#aA"/><use transform="matrix(0.06172839506172839,0,0,0.06172839506172839,12.345679012345679,0)" xlink:href="#ax"/><use transform="matrix(0.06172839506172839,0,0,0.06172839506172839,24.691358024691358,0)" xlink:href="#ab"/></g><g id="T"><use transform="matrix(0.06172839506172839,0,0,0.06172839506172839,0,0)" xlink:href="#aA"/><use transform="matrix(0.06172839506172839,0,0,0.06172839506172839,12.345679012345679,0)" xlink:href="#as"/><use transform="matrix(0.06172839506172839,0,0,0.06172839506172839,17.22222222222222,0)" xlink:href="#ad"/><use transform="matrix(0.06172839506172839,0,0,0.06172839506172839,24.5679012345679,0)" xlink:href="#aB"/></g><g id="U"><use transform="matrix(0.06172839506172839,0,0,0.06172839506172839,0,0)" xlink:href="#au"/><use transform="matrix(0.06172839506172839,0,0,0.06172839506172839,6.172839506172839,0)" xlink:href="#al"/><use transform="matrix(0.06172839506172839,0,0,0.06172839506172839,11.049382716049383,0)" xlink:href="#an"/><use transform="matrix(0.06172839506172839,0,0,0.06172839506172839,22.160493827160494,0)" xlink:href="#at"/></g><g id="V"><use transform="matrix(0.06172839506172839,0,0,0.06172839506172839,0,0)" xlink:href="#ac"/><use transform="matrix(0.06172839506172839,0,0,0.06172839506172839,12.345679012345679,0)" xlink:href="#ay"/><use transform="matrix(0.06172839506172839,0,0,0.06172839506172839,28.333333333333332,0)" xlink:href="#ac"/><use transform="matrix(0.06172839506172839,0,0,0.06172839506172839,40.67901234567901,0)" xlink:href="#an"/></g><g id="W"><use transform="matrix(0.06172839506172839,0,0,0.06172839506172839,0,0)" xlink:href="#aF"/><use transform="matrix(0.06172839506172839,0,0,0.06172839506172839,12.345679012345679,0)" xlink:href="#af"/><use transform="matrix(0.06172839506172839,0,0,0.06172839506172839,24.691358024691358,0)" xlink:href="#ab"/></g><g id="X"><use transform="matrix(0.06172839506172839,0,0,0.06172839506172839,0,0)" xlink:href="#ac"/><use transform="matrix(0.06172839506172839,0,0,0.06172839506172839,12.345679012345679,0)" xlink:href="#ag"/><use transform="matrix(0.06172839506172839,0,0,0.06172839506172839,24.691358024691358,0)" xlink:href="#aB"/></g><g id="Y"><use transform="matrix(0.06172839506172839,0,0,0.06172839506172839,0,0)" xlink:href="#ab"/><use transform="matrix(0.06172839506172839,0,0,0.06172839506172839,6.172839506172839,0)" xlink:href="#ar"/><use transform="matrix(0.06172839506172839,0,0,0.06172839506172839,18.51851851851852,0)" xlink:href="#am"/><use transform="matrix(0.06172839506172839,0,0,0.06172839506172839,30.864197530864196,0)" xlink:href="#ax"/><use transform="matrix(0.06172839506172839,0,0,0.06172839506172839,43.20987654320987,0)" xlink:href="#aF"/><use transform="matrix(0.06172839506172839,0,0,0.06172839506172839,55.55555555555555,0)" xlink:href="#ar"/><use transform="matrix(0.06172839506172839,0,0,0.06172839506172839,67.90123456790123,0)" xlink:href="#ab"/></g><g id="Z"><use transform="matrix(0.06172839506172839,0,0,0.06172839506172839,0,0)" xlink:href="#aB"/><use transform="matrix(0.06172839506172839,0,0,0.06172839506172839,12.345679012345679,0)" xlink:href="#ac"/><use transform="matrix(0.06172839506172839,0,0,0.06172839506172839,24.691358024691358,0)" xlink:href="#an"/></g></defs></g></svg>